<mxfile host="app.diagrams.net" modified="2020-08-25T04:49:41.476Z" agent="5.0 (Windows NT 10.0; Win64; x64) AppleWebKit/537.36 (KHTML, like Gecko) Chrome/84.0.4147.135 Safari/537.36" etag="NRwH8JBeniXMMWQ8GZks" version="13.6.5" type="github">
  <diagram id="t3yBCUSN-lH6VcDjIVjF" name="Page-1">
    <mxGraphModel dx="1422" dy="794" grid="1" gridSize="10" guides="1" tooltips="1" connect="1" arrows="1" fold="1" page="1" pageScale="1" pageWidth="850" pageHeight="1100" math="0" shadow="0">
      <root>
        <mxCell id="0" />
        <mxCell id="1" parent="0" />
        <mxCell id="0NbwlL-7INHjP1GCCuyA-1" value="" style="whiteSpace=wrap;html=1;" vertex="1" parent="1">
          <mxGeometry x="275" y="100" width="300" height="550" as="geometry" />
        </mxCell>
        <mxCell id="0NbwlL-7INHjP1GCCuyA-3" value="" style="whiteSpace=wrap;html=1;" vertex="1" parent="1">
          <mxGeometry x="280" y="370" width="290" height="240" as="geometry" />
        </mxCell>
        <mxCell id="0NbwlL-7INHjP1GCCuyA-5" value="" style="whiteSpace=wrap;html=1;" vertex="1" parent="1">
          <mxGeometry x="280" y="100" width="290" height="200" as="geometry" />
        </mxCell>
        <mxCell id="0NbwlL-7INHjP1GCCuyA-6" value="" style="whiteSpace=wrap;html=1;" vertex="1" parent="1">
          <mxGeometry x="280" y="300" width="290" height="70" as="geometry" />
        </mxCell>
        <mxCell id="0NbwlL-7INHjP1GCCuyA-8" value="&lt;font style=&quot;font-size: 16px&quot;&gt;Name&lt;/font&gt;" style="text;html=1;strokeColor=none;fillColor=none;align=center;verticalAlign=middle;whiteSpace=wrap;fontStyle=1;fontSize=17;" vertex="1" parent="1">
          <mxGeometry x="406.43" y="117.5" width="60" height="30" as="geometry" />
        </mxCell>
        <mxCell id="0NbwlL-7INHjP1GCCuyA-11" value="&lt;p style=&quot;font-size: 50px;&quot;&gt;C&lt;/p&gt;" style="text;html=1;strokeColor=none;fillColor=none;align=center;verticalAlign=middle;whiteSpace=wrap;fontSize=50;fontFamily=Helvetica;" vertex="1" parent="1">
          <mxGeometry x="372.93" y="170" width="105" height="80" as="geometry" />
        </mxCell>
        <mxCell id="0NbwlL-7INHjP1GCCuyA-13" value="" style="ellipse;whiteSpace=wrap;html=1;aspect=fixed;fontFamily=Helvetica;fontSize=50;fontStyle=1" vertex="1" parent="1">
          <mxGeometry x="398" y="190" width="10" height="10" as="geometry" />
        </mxCell>
        <mxCell id="0NbwlL-7INHjP1GCCuyA-15" value="&lt;i style=&quot;font-size: 13px;&quot;&gt;day&lt;/i&gt;" style="text;html=1;strokeColor=none;fillColor=none;align=center;verticalAlign=middle;whiteSpace=wrap;rounded=0;fontFamily=Helvetica;fontSize=13;" vertex="1" parent="1">
          <mxGeometry x="280" y="280" width="40" height="20" as="geometry" />
        </mxCell>
        <mxCell id="0NbwlL-7INHjP1GCCuyA-25" value="" style="endArrow=classic;html=1;fontFamily=Helvetica;fontSize=13;" edge="1" parent="1">
          <mxGeometry width="50" height="50" relative="1" as="geometry">
            <mxPoint x="570" y="365" as="sourcePoint" />
            <mxPoint x="720" y="440" as="targetPoint" />
            <Array as="points" />
          </mxGeometry>
        </mxCell>
        <mxCell id="0NbwlL-7INHjP1GCCuyA-27" value="RecyclerView" style="text;html=1;strokeColor=none;fillColor=none;align=center;verticalAlign=middle;whiteSpace=wrap;rounded=0;fontFamily=Helvetica;fontSize=13;" vertex="1" parent="1">
          <mxGeometry x="740" y="440" width="70" height="20" as="geometry" />
        </mxCell>
        <mxCell id="0NbwlL-7INHjP1GCCuyA-30" value="" style="endArrow=classic;html=1;fontFamily=Helvetica;fontSize=13;" edge="1" parent="1">
          <mxGeometry width="50" height="50" relative="1" as="geometry">
            <mxPoint x="570" y="510" as="sourcePoint" />
            <mxPoint x="720" y="460" as="targetPoint" />
            <Array as="points" />
          </mxGeometry>
        </mxCell>
        <mxCell id="0NbwlL-7INHjP1GCCuyA-34" value="" style="rounded=1;whiteSpace=wrap;html=1;fontFamily=Helvetica;fontSize=13;" vertex="1" parent="1">
          <mxGeometry x="280" y="300" width="60" height="70" as="geometry" />
        </mxCell>
        <mxCell id="0NbwlL-7INHjP1GCCuyA-36" value="Time" style="text;html=1;strokeColor=none;fillColor=none;align=center;verticalAlign=middle;whiteSpace=wrap;rounded=0;fontFamily=Helvetica;fontSize=13;" vertex="1" parent="1">
          <mxGeometry x="280" y="300" width="60" height="20" as="geometry" />
        </mxCell>
        <mxCell id="0NbwlL-7INHjP1GCCuyA-41" value="&lt;div style=&quot;text-align: justify&quot;&gt;&lt;b&gt;C&lt;/b&gt;&lt;/div&gt;" style="text;html=1;strokeColor=none;fillColor=none;align=center;verticalAlign=middle;whiteSpace=wrap;rounded=0;fontFamily=Helvetica;fontSize=13;" vertex="1" parent="1">
          <mxGeometry x="280" y="350" width="60" height="20" as="geometry" />
        </mxCell>
        <mxCell id="0NbwlL-7INHjP1GCCuyA-43" value="" style="ellipse;whiteSpace=wrap;html=1;aspect=fixed;fontFamily=Helvetica;fontSize=50;fontStyle=1" vertex="1" parent="1">
          <mxGeometry x="NaN" y="NaN" width="NaN" height="10" as="geometry" />
        </mxCell>
        <mxCell id="0NbwlL-7INHjP1GCCuyA-60" value="" style="rounded=1;whiteSpace=wrap;html=1;fontFamily=Helvetica;fontSize=30;align=center;" vertex="1" parent="1">
          <mxGeometry x="280" y="370" width="290" height="40" as="geometry" />
        </mxCell>
        <mxCell id="0NbwlL-7INHjP1GCCuyA-61" value="" style="rounded=1;whiteSpace=wrap;html=1;fontFamily=Helvetica;fontSize=30;align=center;" vertex="1" parent="1">
          <mxGeometry x="280" y="410" width="290" height="40" as="geometry" />
        </mxCell>
        <mxCell id="0NbwlL-7INHjP1GCCuyA-62" value="" style="rounded=1;whiteSpace=wrap;html=1;fontFamily=Helvetica;fontSize=30;align=center;" vertex="1" parent="1">
          <mxGeometry x="280" y="450" width="290" height="40" as="geometry" />
        </mxCell>
        <mxCell id="0NbwlL-7INHjP1GCCuyA-63" value="" style="rounded=1;whiteSpace=wrap;html=1;fontFamily=Helvetica;fontSize=30;align=center;" vertex="1" parent="1">
          <mxGeometry x="280" y="490" width="290" height="40" as="geometry" />
        </mxCell>
        <mxCell id="0NbwlL-7INHjP1GCCuyA-66" value="&lt;i style=&quot;font-size: 13px&quot;&gt;Min&lt;/i&gt;" style="text;html=1;strokeColor=none;fillColor=none;align=center;verticalAlign=middle;whiteSpace=wrap;rounded=0;fontFamily=Helvetica;fontSize=13;" vertex="1" parent="1">
          <mxGeometry x="485" y="280" width="40" height="20" as="geometry" />
        </mxCell>
        <mxCell id="0NbwlL-7INHjP1GCCuyA-67" value="&lt;i style=&quot;font-size: 13px&quot;&gt;Max&lt;/i&gt;" style="text;html=1;strokeColor=none;fillColor=none;align=center;verticalAlign=middle;whiteSpace=wrap;rounded=0;fontFamily=Helvetica;fontSize=13;" vertex="1" parent="1">
          <mxGeometry x="530" y="280" width="40" height="20" as="geometry" />
        </mxCell>
        <mxCell id="0NbwlL-7INHjP1GCCuyA-71" value="" style="rounded=1;whiteSpace=wrap;html=1;fontFamily=Helvetica;fontSize=13;" vertex="1" parent="1">
          <mxGeometry x="340" y="300" width="60" height="70" as="geometry" />
        </mxCell>
        <mxCell id="0NbwlL-7INHjP1GCCuyA-75" value="Time" style="text;html=1;strokeColor=none;fillColor=none;align=center;verticalAlign=middle;whiteSpace=wrap;rounded=0;fontFamily=Helvetica;fontSize=13;" vertex="1" parent="1">
          <mxGeometry x="340" y="300" width="60" height="20" as="geometry" />
        </mxCell>
        <mxCell id="0NbwlL-7INHjP1GCCuyA-77" value="&lt;div style=&quot;text-align: justify&quot;&gt;&lt;b&gt;C&lt;/b&gt;&lt;/div&gt;" style="text;html=1;strokeColor=none;fillColor=none;align=center;verticalAlign=middle;whiteSpace=wrap;rounded=0;fontFamily=Helvetica;fontSize=13;" vertex="1" parent="1">
          <mxGeometry x="340" y="350" width="60" height="20" as="geometry" />
        </mxCell>
        <mxCell id="0NbwlL-7INHjP1GCCuyA-83" value="" style="rounded=1;whiteSpace=wrap;html=1;fontFamily=Helvetica;fontSize=13;" vertex="1" parent="1">
          <mxGeometry x="400" y="300" width="60" height="70" as="geometry" />
        </mxCell>
        <mxCell id="0NbwlL-7INHjP1GCCuyA-84" value="" style="rounded=1;whiteSpace=wrap;html=1;fontFamily=Helvetica;fontSize=13;" vertex="1" parent="1">
          <mxGeometry x="460" y="300" width="60" height="70" as="geometry" />
        </mxCell>
        <mxCell id="0NbwlL-7INHjP1GCCuyA-85" value="" style="rounded=1;whiteSpace=wrap;html=1;fontFamily=Helvetica;fontSize=13;" vertex="1" parent="1">
          <mxGeometry x="520" y="300" width="50" height="70" as="geometry" />
        </mxCell>
        <mxCell id="0NbwlL-7INHjP1GCCuyA-87" value="" style="rounded=1;whiteSpace=wrap;html=1;fontFamily=Helvetica;fontSize=30;align=center;" vertex="1" parent="1">
          <mxGeometry x="280" y="530" width="290" height="40" as="geometry" />
        </mxCell>
        <mxCell id="0NbwlL-7INHjP1GCCuyA-88" value="&lt;div&gt;&lt;span style=&quot;font-size: 15px&quot;&gt;&lt;i&gt;NextDay&lt;/i&gt;&lt;/span&gt;&lt;/div&gt;" style="text;html=1;strokeColor=none;fillColor=none;align=center;verticalAlign=bottom;whiteSpace=wrap;rounded=0;fontFamily=Helvetica;fontSize=30;" vertex="1" parent="1">
          <mxGeometry x="280" y="370" width="70" height="40" as="geometry" />
        </mxCell>
        <mxCell id="0NbwlL-7INHjP1GCCuyA-92" value="&lt;i style=&quot;font-size: 13px&quot;&gt;Min&lt;/i&gt;" style="text;html=1;strokeColor=none;fillColor=none;align=center;verticalAlign=middle;whiteSpace=wrap;rounded=0;fontFamily=Helvetica;fontSize=13;" vertex="1" parent="1">
          <mxGeometry x="485" y="380" width="40" height="20" as="geometry" />
        </mxCell>
        <mxCell id="0NbwlL-7INHjP1GCCuyA-93" value="&lt;i style=&quot;font-size: 13px&quot;&gt;Max&lt;/i&gt;" style="text;html=1;strokeColor=none;fillColor=none;align=center;verticalAlign=middle;whiteSpace=wrap;rounded=0;fontFamily=Helvetica;fontSize=13;" vertex="1" parent="1">
          <mxGeometry x="530" y="380" width="40" height="20" as="geometry" />
        </mxCell>
        <mxCell id="0NbwlL-7INHjP1GCCuyA-95" value="&lt;i style=&quot;font-size: 15px&quot;&gt;NextDay&lt;/i&gt;" style="text;html=1;strokeColor=none;fillColor=none;align=center;verticalAlign=middle;whiteSpace=wrap;rounded=0;fontFamily=Helvetica;fontSize=30;" vertex="1" parent="1">
          <mxGeometry x="280" y="410" width="70" height="40" as="geometry" />
        </mxCell>
        <mxCell id="0NbwlL-7INHjP1GCCuyA-98" value="&lt;i style=&quot;font-size: 13px&quot;&gt;Min&lt;/i&gt;" style="text;html=1;strokeColor=none;fillColor=none;align=center;verticalAlign=middle;whiteSpace=wrap;rounded=0;fontFamily=Helvetica;fontSize=13;" vertex="1" parent="1">
          <mxGeometry x="485" y="420" width="40" height="20" as="geometry" />
        </mxCell>
        <mxCell id="0NbwlL-7INHjP1GCCuyA-99" value="&lt;i style=&quot;font-size: 13px&quot;&gt;Max&lt;/i&gt;" style="text;html=1;strokeColor=none;fillColor=none;align=center;verticalAlign=middle;whiteSpace=wrap;rounded=0;fontFamily=Helvetica;fontSize=13;" vertex="1" parent="1">
          <mxGeometry x="530" y="420" width="40" height="20" as="geometry" />
        </mxCell>
        <mxCell id="0NbwlL-7INHjP1GCCuyA-101" value="" style="rounded=1;whiteSpace=wrap;html=1;fontFamily=Helvetica;fontSize=30;align=center;" vertex="1" parent="1">
          <mxGeometry x="280" y="570" width="290" height="40" as="geometry" />
        </mxCell>
        <mxCell id="0NbwlL-7INHjP1GCCuyA-102" value="&lt;i style=&quot;font-size: 15px&quot;&gt;NextDay&lt;/i&gt;" style="text;html=1;strokeColor=none;fillColor=none;align=center;verticalAlign=middle;whiteSpace=wrap;rounded=0;fontFamily=Helvetica;fontSize=30;" vertex="1" parent="1">
          <mxGeometry x="280" y="450" width="70" height="40" as="geometry" />
        </mxCell>
        <mxCell id="0NbwlL-7INHjP1GCCuyA-105" value="&lt;i style=&quot;font-size: 13px&quot;&gt;Min&lt;/i&gt;" style="text;html=1;strokeColor=none;fillColor=none;align=center;verticalAlign=middle;whiteSpace=wrap;rounded=0;fontFamily=Helvetica;fontSize=13;" vertex="1" parent="1">
          <mxGeometry x="485" y="460" width="40" height="20" as="geometry" />
        </mxCell>
        <mxCell id="0NbwlL-7INHjP1GCCuyA-106" value="&lt;i style=&quot;font-size: 13px&quot;&gt;Max&lt;/i&gt;" style="text;html=1;strokeColor=none;fillColor=none;align=center;verticalAlign=middle;whiteSpace=wrap;rounded=0;fontFamily=Helvetica;fontSize=13;" vertex="1" parent="1">
          <mxGeometry x="530" y="460" width="40" height="20" as="geometry" />
        </mxCell>
        <mxCell id="0NbwlL-7INHjP1GCCuyA-121" value="&lt;i style=&quot;font-size: 15px&quot;&gt;NextDay&lt;/i&gt;" style="text;html=1;strokeColor=none;fillColor=none;align=center;verticalAlign=middle;whiteSpace=wrap;rounded=0;fontFamily=Helvetica;fontSize=30;" vertex="1" parent="1">
          <mxGeometry x="280" y="490" width="70" height="40" as="geometry" />
        </mxCell>
        <mxCell id="0NbwlL-7INHjP1GCCuyA-122" value="&lt;i style=&quot;font-size: 15px&quot;&gt;NextDay&lt;/i&gt;" style="text;html=1;strokeColor=none;fillColor=none;align=center;verticalAlign=middle;whiteSpace=wrap;rounded=0;fontFamily=Helvetica;fontSize=30;" vertex="1" parent="1">
          <mxGeometry x="280" y="530" width="70" height="40" as="geometry" />
        </mxCell>
        <mxCell id="0NbwlL-7INHjP1GCCuyA-123" value="&lt;i style=&quot;font-size: 15px&quot;&gt;NextDay&lt;/i&gt;" style="text;html=1;strokeColor=none;fillColor=none;align=center;verticalAlign=middle;whiteSpace=wrap;rounded=0;fontFamily=Helvetica;fontSize=30;" vertex="1" parent="1">
          <mxGeometry x="280" y="570" width="70" height="40" as="geometry" />
        </mxCell>
        <mxCell id="0NbwlL-7INHjP1GCCuyA-124" value="Time" style="text;html=1;strokeColor=none;fillColor=none;align=center;verticalAlign=middle;whiteSpace=wrap;rounded=0;fontFamily=Helvetica;fontSize=13;" vertex="1" parent="1">
          <mxGeometry x="400" y="300" width="60" height="20" as="geometry" />
        </mxCell>
        <mxCell id="0NbwlL-7INHjP1GCCuyA-125" value="Time" style="text;html=1;strokeColor=none;fillColor=none;align=center;verticalAlign=middle;whiteSpace=wrap;rounded=0;fontFamily=Helvetica;fontSize=13;" vertex="1" parent="1">
          <mxGeometry x="460" y="300" width="60" height="20" as="geometry" />
        </mxCell>
        <mxCell id="0NbwlL-7INHjP1GCCuyA-126" value="Time" style="text;html=1;strokeColor=none;fillColor=none;align=center;verticalAlign=middle;whiteSpace=wrap;rounded=0;fontFamily=Helvetica;fontSize=13;" vertex="1" parent="1">
          <mxGeometry x="520" y="300" width="50" height="20" as="geometry" />
        </mxCell>
        <mxCell id="0NbwlL-7INHjP1GCCuyA-127" value="&lt;div style=&quot;text-align: justify&quot;&gt;&lt;b&gt;C&lt;/b&gt;&lt;/div&gt;" style="text;html=1;strokeColor=none;fillColor=none;align=center;verticalAlign=middle;whiteSpace=wrap;rounded=0;fontFamily=Helvetica;fontSize=13;" vertex="1" parent="1">
          <mxGeometry x="400" y="350" width="60" height="20" as="geometry" />
        </mxCell>
        <mxCell id="0NbwlL-7INHjP1GCCuyA-128" value="&lt;div style=&quot;text-align: justify&quot;&gt;&lt;b&gt;C&lt;/b&gt;&lt;/div&gt;" style="text;html=1;strokeColor=none;fillColor=none;align=center;verticalAlign=middle;whiteSpace=wrap;rounded=0;fontFamily=Helvetica;fontSize=13;" vertex="1" parent="1">
          <mxGeometry x="460" y="350" width="60" height="20" as="geometry" />
        </mxCell>
        <mxCell id="0NbwlL-7INHjP1GCCuyA-129" value="&lt;div style=&quot;text-align: justify&quot;&gt;&lt;b&gt;C&lt;/b&gt;&lt;/div&gt;" style="text;html=1;strokeColor=none;fillColor=none;align=center;verticalAlign=middle;whiteSpace=wrap;rounded=0;fontFamily=Helvetica;fontSize=13;" vertex="1" parent="1">
          <mxGeometry x="520" y="350" width="50" height="20" as="geometry" />
        </mxCell>
        <mxCell id="0NbwlL-7INHjP1GCCuyA-130" value="&lt;i style=&quot;font-size: 13px&quot;&gt;Min&lt;/i&gt;" style="text;html=1;strokeColor=none;fillColor=none;align=center;verticalAlign=middle;whiteSpace=wrap;rounded=0;fontFamily=Helvetica;fontSize=13;" vertex="1" parent="1">
          <mxGeometry x="485" y="500" width="40" height="20" as="geometry" />
        </mxCell>
        <mxCell id="0NbwlL-7INHjP1GCCuyA-131" value="&lt;i style=&quot;font-size: 13px&quot;&gt;Min&lt;/i&gt;" style="text;html=1;strokeColor=none;fillColor=none;align=center;verticalAlign=middle;whiteSpace=wrap;rounded=0;fontFamily=Helvetica;fontSize=13;" vertex="1" parent="1">
          <mxGeometry x="485" y="540" width="40" height="20" as="geometry" />
        </mxCell>
        <mxCell id="0NbwlL-7INHjP1GCCuyA-132" value="&lt;i style=&quot;font-size: 13px&quot;&gt;Min&lt;/i&gt;" style="text;html=1;strokeColor=none;fillColor=none;align=center;verticalAlign=middle;whiteSpace=wrap;rounded=0;fontFamily=Helvetica;fontSize=13;" vertex="1" parent="1">
          <mxGeometry x="485" y="580" width="40" height="20" as="geometry" />
        </mxCell>
        <mxCell id="0NbwlL-7INHjP1GCCuyA-133" value="&lt;i style=&quot;font-size: 13px&quot;&gt;Max&lt;/i&gt;" style="text;html=1;strokeColor=none;fillColor=none;align=center;verticalAlign=middle;whiteSpace=wrap;rounded=0;fontFamily=Helvetica;fontSize=13;" vertex="1" parent="1">
          <mxGeometry x="530" y="500" width="40" height="20" as="geometry" />
        </mxCell>
        <mxCell id="0NbwlL-7INHjP1GCCuyA-134" value="&lt;i style=&quot;font-size: 13px&quot;&gt;Max&lt;/i&gt;" style="text;html=1;strokeColor=none;fillColor=none;align=center;verticalAlign=middle;whiteSpace=wrap;rounded=0;fontFamily=Helvetica;fontSize=13;" vertex="1" parent="1">
          <mxGeometry x="530" y="540" width="40" height="20" as="geometry" />
        </mxCell>
        <mxCell id="0NbwlL-7INHjP1GCCuyA-135" value="&lt;i style=&quot;font-size: 13px&quot;&gt;Max&lt;/i&gt;" style="text;html=1;strokeColor=none;fillColor=none;align=center;verticalAlign=middle;whiteSpace=wrap;rounded=0;fontFamily=Helvetica;fontSize=13;" vertex="1" parent="1">
          <mxGeometry x="530" y="580" width="40" height="20" as="geometry" />
        </mxCell>
        <mxCell id="0NbwlL-7INHjP1GCCuyA-138" value="" style="aspect=fixed;perimeter=ellipsePerimeter;html=1;align=center;shadow=0;dashed=0;spacingTop=3;image;image=img/lib/active_directory/internet_cloud.svg;fontFamily=Helvetica;fontSize=30;" vertex="1" parent="1">
          <mxGeometry x="410" y="324.79999999999995" width="40" height="25.2" as="geometry" />
        </mxCell>
        <mxCell id="0NbwlL-7INHjP1GCCuyA-139" value="" style="shape=image;html=1;verticalAlign=top;verticalLabelPosition=bottom;labelBackgroundColor=#ffffff;imageAspect=0;aspect=fixed;image=https://cdn2.iconfinder.com/data/icons/weather-flat-14/64/weather02-128.png;fontFamily=Helvetica;fontSize=30;align=center;" vertex="1" parent="1">
          <mxGeometry x="292.13" y="317.13" width="32.87" height="32.87" as="geometry" />
        </mxCell>
        <mxCell id="0NbwlL-7INHjP1GCCuyA-141" value="" style="shape=image;html=1;verticalAlign=top;verticalLabelPosition=bottom;labelBackgroundColor=#ffffff;imageAspect=0;aspect=fixed;image=https://cdn1.iconfinder.com/data/icons/hawcons/32/699843-icon-4-cloud-rain-128.png;fontFamily=Helvetica;fontSize=30;align=center;" vertex="1" parent="1">
          <mxGeometry x="530" y="320" width="30" height="30" as="geometry" />
        </mxCell>
        <mxCell id="0NbwlL-7INHjP1GCCuyA-142" value="" style="aspect=fixed;perimeter=ellipsePerimeter;html=1;align=center;shadow=0;dashed=0;spacingTop=3;image;image=img/lib/active_directory/internet_cloud.svg;fontFamily=Helvetica;fontSize=30;" vertex="1" parent="1">
          <mxGeometry x="470" y="324.79999999999995" width="40" height="25.2" as="geometry" />
        </mxCell>
        <mxCell id="0NbwlL-7INHjP1GCCuyA-143" value="" style="shape=image;html=1;verticalAlign=top;verticalLabelPosition=bottom;labelBackgroundColor=#ffffff;imageAspect=0;aspect=fixed;image=https://cdn1.iconfinder.com/data/icons/hawcons/32/699843-icon-4-cloud-rain-128.png;fontFamily=Helvetica;fontSize=30;align=center;" vertex="1" parent="1">
          <mxGeometry x="411.43" y="575" width="30" height="30" as="geometry" />
        </mxCell>
        <mxCell id="0NbwlL-7INHjP1GCCuyA-144" value="" style="shape=image;html=1;verticalAlign=top;verticalLabelPosition=bottom;labelBackgroundColor=#ffffff;imageAspect=0;aspect=fixed;image=https://cdn2.iconfinder.com/data/icons/weather-flat-14/64/weather02-128.png;fontFamily=Helvetica;fontSize=30;align=center;" vertex="1" parent="1">
          <mxGeometry x="353.56" y="319.53" width="32.87" height="32.87" as="geometry" />
        </mxCell>
        <mxCell id="0NbwlL-7INHjP1GCCuyA-145" value="" style="shape=image;html=1;verticalAlign=top;verticalLabelPosition=bottom;labelBackgroundColor=#ffffff;imageAspect=0;aspect=fixed;image=https://cdn2.iconfinder.com/data/icons/weather-flat-14/64/weather02-128.png;fontFamily=Helvetica;fontSize=30;align=center;" vertex="1" parent="1">
          <mxGeometry x="410" y="373.56" width="32.87" height="32.87" as="geometry" />
        </mxCell>
        <mxCell id="0NbwlL-7INHjP1GCCuyA-146" value="" style="shape=image;html=1;verticalAlign=top;verticalLabelPosition=bottom;labelBackgroundColor=#ffffff;imageAspect=0;aspect=fixed;image=https://cdn2.iconfinder.com/data/icons/weather-flat-14/64/weather02-128.png;fontFamily=Helvetica;fontSize=30;align=center;" vertex="1" parent="1">
          <mxGeometry x="410" y="413.56" width="32.87" height="32.87" as="geometry" />
        </mxCell>
        <mxCell id="0NbwlL-7INHjP1GCCuyA-147" value="" style="shape=image;html=1;verticalAlign=top;verticalLabelPosition=bottom;labelBackgroundColor=#ffffff;imageAspect=0;aspect=fixed;image=https://cdn2.iconfinder.com/data/icons/weather-flat-14/64/weather02-128.png;fontFamily=Helvetica;fontSize=30;align=center;" vertex="1" parent="1">
          <mxGeometry x="409" y="453.56" width="32.87" height="32.87" as="geometry" />
        </mxCell>
        <mxCell id="0NbwlL-7INHjP1GCCuyA-148" value="" style="aspect=fixed;perimeter=ellipsePerimeter;html=1;align=center;shadow=0;dashed=0;spacingTop=3;image;image=img/lib/active_directory/internet_cloud.svg;fontFamily=Helvetica;fontSize=30;" vertex="1" parent="1">
          <mxGeometry x="406.43" y="499.99999999999994" width="40" height="25.2" as="geometry" />
        </mxCell>
        <mxCell id="0NbwlL-7INHjP1GCCuyA-149" value="" style="aspect=fixed;perimeter=ellipsePerimeter;html=1;align=center;shadow=0;dashed=0;spacingTop=3;image;image=img/lib/active_directory/internet_cloud.svg;fontFamily=Helvetica;fontSize=30;" vertex="1" parent="1">
          <mxGeometry x="405" y="534.8" width="40" height="25.2" as="geometry" />
        </mxCell>
        <mxCell id="0NbwlL-7INHjP1GCCuyA-150" value="" style="html=1;verticalLabelPosition=bottom;align=center;labelBackgroundColor=#ffffff;verticalAlign=top;strokeWidth=2;strokeColor=#0080F0;shadow=0;dashed=0;shape=mxgraph.ios7.icons.location_2;fontFamily=Helvetica;fontSize=30;" vertex="1" parent="1">
          <mxGeometry x="416.43" y="620" width="20" height="20" as="geometry" />
        </mxCell>
        <mxCell id="0NbwlL-7INHjP1GCCuyA-156" value="" style="shape=image;html=1;verticalAlign=top;verticalLabelPosition=bottom;labelBackgroundColor=#ffffff;imageAspect=0;aspect=fixed;image=https://cdn4.iconfinder.com/data/icons/evil-icons-user-interface/64/menu-128.png;fontFamily=Helvetica;fontSize=30;align=center;" vertex="1" parent="1">
          <mxGeometry x="536" y="616" width="28" height="28" as="geometry" />
        </mxCell>
        <mxCell id="0NbwlL-7INHjP1GCCuyA-158" value="" style="whiteSpace=wrap;html=1;" vertex="1" parent="1">
          <mxGeometry x="275" y="750" width="300" height="550" as="geometry" />
        </mxCell>
        <mxCell id="0NbwlL-7INHjP1GCCuyA-159" value="" style="whiteSpace=wrap;html=1;" vertex="1" parent="1">
          <mxGeometry x="276.43" y="1375" width="300" height="550" as="geometry" />
        </mxCell>
        <mxCell id="0NbwlL-7INHjP1GCCuyA-161" value="" style="rounded=0;whiteSpace=wrap;html=1;fontFamily=Helvetica;fontSize=30;align=center;" vertex="1" parent="1">
          <mxGeometry x="278" y="750" width="293.57" height="60" as="geometry" />
        </mxCell>
        <mxCell id="0NbwlL-7INHjP1GCCuyA-163" value="&lt;font style=&quot;font-size: 16px&quot;&gt;Name&lt;/font&gt;" style="text;html=1;strokeColor=none;fillColor=none;align=center;verticalAlign=middle;whiteSpace=wrap;fontStyle=1;fontSize=17;" vertex="1" parent="1">
          <mxGeometry x="400" y="765" width="60" height="30" as="geometry" />
        </mxCell>
        <mxCell id="0NbwlL-7INHjP1GCCuyA-164" value="" style="html=1;verticalLabelPosition=bottom;align=center;labelBackgroundColor=#ffffff;verticalAlign=top;strokeWidth=2;strokeColor=#0080F0;shadow=0;dashed=0;shape=mxgraph.ios7.icons.location;fontFamily=Helvetica;fontSize=30;" vertex="1" parent="1">
          <mxGeometry x="397.43" y="125" width="14" height="15" as="geometry" />
        </mxCell>
        <mxCell id="0NbwlL-7INHjP1GCCuyA-166" value="" style="html=1;verticalLabelPosition=bottom;align=center;labelBackgroundColor=#ffffff;verticalAlign=top;strokeWidth=2;strokeColor=#0080F0;shadow=0;dashed=0;shape=mxgraph.ios7.icons.location;fontFamily=Helvetica;fontSize=30;" vertex="1" parent="1">
          <mxGeometry x="391" y="772.5" width="14" height="15" as="geometry" />
        </mxCell>
        <mxCell id="0NbwlL-7INHjP1GCCuyA-170" value="" style="rounded=0;whiteSpace=wrap;html=1;fontFamily=Helvetica;fontSize=30;align=center;" vertex="1" parent="1">
          <mxGeometry x="278.5" y="810" width="292.57" height="70" as="geometry" />
        </mxCell>
        <mxCell id="0NbwlL-7INHjP1GCCuyA-171" value="" style="rounded=1;whiteSpace=wrap;html=1;fontFamily=Helvetica;fontSize=13;" vertex="1" parent="1">
          <mxGeometry x="278.57" y="810" width="60" height="70" as="geometry" />
        </mxCell>
        <mxCell id="0NbwlL-7INHjP1GCCuyA-172" value="" style="rounded=1;whiteSpace=wrap;html=1;fontFamily=Helvetica;fontSize=13;" vertex="1" parent="1">
          <mxGeometry x="338" y="810" width="60" height="70" as="geometry" />
        </mxCell>
        <mxCell id="0NbwlL-7INHjP1GCCuyA-173" value="" style="rounded=1;whiteSpace=wrap;html=1;fontFamily=Helvetica;fontSize=13;" vertex="1" parent="1">
          <mxGeometry x="398" y="810" width="60" height="70" as="geometry" />
        </mxCell>
        <mxCell id="0NbwlL-7INHjP1GCCuyA-174" value="" style="rounded=1;whiteSpace=wrap;html=1;fontFamily=Helvetica;fontSize=13;" vertex="1" parent="1">
          <mxGeometry x="458" y="810" width="60" height="70" as="geometry" />
        </mxCell>
        <mxCell id="0NbwlL-7INHjP1GCCuyA-175" value="" style="rounded=1;whiteSpace=wrap;html=1;fontFamily=Helvetica;fontSize=13;" vertex="1" parent="1">
          <mxGeometry x="518" y="810" width="52" height="70" as="geometry" />
        </mxCell>
        <mxCell id="0NbwlL-7INHjP1GCCuyA-176" value="Time" style="text;html=1;strokeColor=none;fillColor=none;align=center;verticalAlign=middle;whiteSpace=wrap;rounded=0;fontFamily=Helvetica;fontSize=13;" vertex="1" parent="1">
          <mxGeometry x="337.43" y="810" width="60" height="20" as="geometry" />
        </mxCell>
        <mxCell id="0NbwlL-7INHjP1GCCuyA-177" value="" style="shape=image;html=1;verticalAlign=top;verticalLabelPosition=bottom;labelBackgroundColor=#ffffff;imageAspect=0;aspect=fixed;image=https://cdn2.iconfinder.com/data/icons/weather-flat-14/64/weather02-128.png;fontFamily=Helvetica;fontSize=30;align=center;" vertex="1" parent="1">
          <mxGeometry x="353.57" y="828.56" width="32.87" height="32.87" as="geometry" />
        </mxCell>
        <mxCell id="0NbwlL-7INHjP1GCCuyA-178" value="&lt;div style=&quot;text-align: justify&quot;&gt;&lt;b&gt;C&lt;/b&gt;&lt;/div&gt;" style="text;html=1;strokeColor=none;fillColor=none;align=center;verticalAlign=middle;whiteSpace=wrap;rounded=0;fontFamily=Helvetica;fontSize=13;" vertex="1" parent="1">
          <mxGeometry x="520" y="860" width="50" height="20" as="geometry" />
        </mxCell>
        <mxCell id="0NbwlL-7INHjP1GCCuyA-180" value="" style="shape=image;html=1;verticalAlign=top;verticalLabelPosition=bottom;labelBackgroundColor=#ffffff;imageAspect=0;aspect=fixed;image=https://cdn2.iconfinder.com/data/icons/weather-flat-14/64/weather02-128.png;fontFamily=Helvetica;fontSize=30;align=center;" vertex="1" parent="1">
          <mxGeometry x="293.56" y="827.1299999999999" width="32.87" height="32.87" as="geometry" />
        </mxCell>
        <mxCell id="0NbwlL-7INHjP1GCCuyA-181" value="Time" style="text;html=1;strokeColor=none;fillColor=none;align=center;verticalAlign=middle;whiteSpace=wrap;rounded=0;fontFamily=Helvetica;fontSize=13;" vertex="1" parent="1">
          <mxGeometry x="278.57" y="810" width="60" height="20" as="geometry" />
        </mxCell>
        <mxCell id="0NbwlL-7INHjP1GCCuyA-182" value="&lt;div style=&quot;text-align: justify&quot;&gt;&lt;b&gt;C&lt;/b&gt;&lt;/div&gt;" style="text;html=1;strokeColor=none;fillColor=none;align=center;verticalAlign=middle;whiteSpace=wrap;rounded=0;fontFamily=Helvetica;fontSize=13;" vertex="1" parent="1">
          <mxGeometry x="278.57" y="860" width="60" height="20" as="geometry" />
        </mxCell>
        <mxCell id="0NbwlL-7INHjP1GCCuyA-185" value="Time" style="text;html=1;strokeColor=none;fillColor=none;align=center;verticalAlign=middle;whiteSpace=wrap;rounded=0;fontFamily=Helvetica;fontSize=13;" vertex="1" parent="1">
          <mxGeometry x="398" y="810" width="60" height="20" as="geometry" />
        </mxCell>
        <mxCell id="0NbwlL-7INHjP1GCCuyA-186" value="Time" style="text;html=1;strokeColor=none;fillColor=none;align=center;verticalAlign=middle;whiteSpace=wrap;rounded=0;fontFamily=Helvetica;fontSize=13;" vertex="1" parent="1">
          <mxGeometry x="458" y="810" width="60" height="20" as="geometry" />
        </mxCell>
        <mxCell id="0NbwlL-7INHjP1GCCuyA-187" value="Time" style="text;html=1;strokeColor=none;fillColor=none;align=center;verticalAlign=middle;whiteSpace=wrap;rounded=0;fontFamily=Helvetica;fontSize=13;" vertex="1" parent="1">
          <mxGeometry x="518" y="810" width="52" height="20" as="geometry" />
        </mxCell>
        <mxCell id="0NbwlL-7INHjP1GCCuyA-188" value="&lt;div style=&quot;text-align: justify&quot;&gt;&lt;b&gt;C&lt;/b&gt;&lt;/div&gt;" style="text;html=1;strokeColor=none;fillColor=none;align=center;verticalAlign=middle;whiteSpace=wrap;rounded=0;fontFamily=Helvetica;fontSize=13;" vertex="1" parent="1">
          <mxGeometry x="458" y="860" width="60" height="20" as="geometry" />
        </mxCell>
        <mxCell id="0NbwlL-7INHjP1GCCuyA-189" value="&lt;div style=&quot;text-align: justify&quot;&gt;&lt;b&gt;C&lt;/b&gt;&lt;/div&gt;" style="text;html=1;strokeColor=none;fillColor=none;align=center;verticalAlign=middle;whiteSpace=wrap;rounded=0;fontFamily=Helvetica;fontSize=13;" vertex="1" parent="1">
          <mxGeometry x="398" y="860" width="60" height="20" as="geometry" />
        </mxCell>
        <mxCell id="0NbwlL-7INHjP1GCCuyA-190" value="&lt;div style=&quot;text-align: justify&quot;&gt;&lt;b&gt;C&lt;/b&gt;&lt;/div&gt;" style="text;html=1;strokeColor=none;fillColor=none;align=center;verticalAlign=middle;whiteSpace=wrap;rounded=0;fontFamily=Helvetica;fontSize=13;" vertex="1" parent="1">
          <mxGeometry x="338" y="860" width="60" height="20" as="geometry" />
        </mxCell>
        <mxCell id="0NbwlL-7INHjP1GCCuyA-191" value="" style="aspect=fixed;perimeter=ellipsePerimeter;html=1;align=center;shadow=0;dashed=0;spacingTop=3;image;image=img/lib/active_directory/internet_cloud.svg;fontFamily=Helvetica;fontSize=30;" vertex="1" parent="1">
          <mxGeometry x="470" y="834.8" width="40" height="25.2" as="geometry" />
        </mxCell>
        <mxCell id="0NbwlL-7INHjP1GCCuyA-192" value="" style="aspect=fixed;perimeter=ellipsePerimeter;html=1;align=center;shadow=0;dashed=0;spacingTop=3;image;image=img/lib/active_directory/internet_cloud.svg;fontFamily=Helvetica;fontSize=30;" vertex="1" parent="1">
          <mxGeometry x="408" y="834.8" width="40" height="25.2" as="geometry" />
        </mxCell>
        <mxCell id="0NbwlL-7INHjP1GCCuyA-193" value="" style="shape=image;html=1;verticalAlign=top;verticalLabelPosition=bottom;labelBackgroundColor=#ffffff;imageAspect=0;aspect=fixed;image=https://cdn1.iconfinder.com/data/icons/hawcons/32/699843-icon-4-cloud-rain-128.png;fontFamily=Helvetica;fontSize=30;align=center;" vertex="1" parent="1">
          <mxGeometry x="529" y="832.4" width="30" height="30" as="geometry" />
        </mxCell>
        <mxCell id="0NbwlL-7INHjP1GCCuyA-194" value="" style="rounded=0;whiteSpace=wrap;html=1;fontFamily=Helvetica;fontSize=30;align=center;" vertex="1" parent="1">
          <mxGeometry x="278.57" y="880" width="291.43" height="80" as="geometry" />
        </mxCell>
        <mxCell id="0NbwlL-7INHjP1GCCuyA-196" value="&lt;div style=&quot;text-align: justify&quot;&gt;&lt;span&gt;&lt;font style=&quot;font-size: 15px&quot;&gt;Details&lt;/font&gt;&lt;/span&gt;&lt;/div&gt;" style="text;html=1;strokeColor=none;fillColor=none;align=center;verticalAlign=middle;whiteSpace=wrap;rounded=0;fontFamily=Helvetica;fontSize=30;fontStyle=2" vertex="1" parent="1">
          <mxGeometry x="285" y="890" width="65" height="30" as="geometry" />
        </mxCell>
        <mxCell id="0NbwlL-7INHjP1GCCuyA-198" value="" style="endArrow=classic;html=1;fontFamily=Helvetica;fontSize=30;" edge="1" parent="1">
          <mxGeometry width="50" height="50" relative="1" as="geometry">
            <mxPoint x="575" y="209.5" as="sourcePoint" />
            <mxPoint x="685" y="210" as="targetPoint" />
            <Array as="points" />
          </mxGeometry>
        </mxCell>
        <mxCell id="0NbwlL-7INHjP1GCCuyA-201" value="CoordinatorLayout" style="text;html=1;strokeColor=none;fillColor=none;align=center;verticalAlign=middle;whiteSpace=wrap;rounded=0;fontFamily=Helvetica;fontSize=13;" vertex="1" parent="1">
          <mxGeometry x="710" y="200" width="110" height="20" as="geometry" />
        </mxCell>
        <mxCell id="0NbwlL-7INHjP1GCCuyA-202" value="" style="endArrow=classic;html=1;fontFamily=Helvetica;fontSize=30;" edge="1" parent="1">
          <mxGeometry width="50" height="50" relative="1" as="geometry">
            <mxPoint x="426" y="670" as="sourcePoint" />
            <mxPoint x="425.93" y="740" as="targetPoint" />
            <Array as="points" />
          </mxGeometry>
        </mxCell>
        <mxCell id="0NbwlL-7INHjP1GCCuyA-203" value="Scroll&lt;br&gt;" style="text;html=1;strokeColor=none;fillColor=none;align=center;verticalAlign=middle;whiteSpace=wrap;rounded=0;fontFamily=Helvetica;fontSize=13;" vertex="1" parent="1">
          <mxGeometry x="477.93" y="690" width="70" height="20" as="geometry" />
        </mxCell>
        <mxCell id="0NbwlL-7INHjP1GCCuyA-204" value="" style="endArrow=classic;html=1;fontFamily=Helvetica;fontSize=30;" edge="1" parent="1">
          <mxGeometry width="50" height="50" relative="1" as="geometry">
            <mxPoint x="275" y="635" as="sourcePoint" />
            <mxPoint x="190" y="635" as="targetPoint" />
            <Array as="points">
              <mxPoint x="210" y="635" />
            </Array>
          </mxGeometry>
        </mxCell>
        <mxCell id="0NbwlL-7INHjP1GCCuyA-205" value="Bottom Navigatiom" style="text;html=1;strokeColor=none;fillColor=none;align=center;verticalAlign=middle;whiteSpace=wrap;rounded=0;fontFamily=Helvetica;fontSize=13;" vertex="1" parent="1">
          <mxGeometry x="100" y="620" width="70" height="30" as="geometry" />
        </mxCell>
        <mxCell id="0NbwlL-7INHjP1GCCuyA-206" value="" style="endArrow=classic;html=1;fontFamily=Helvetica;fontSize=30;" edge="1" parent="1">
          <mxGeometry width="50" height="50" relative="1" as="geometry">
            <mxPoint x="386.43" y="140" as="sourcePoint" />
            <mxPoint x="230" y="140" as="targetPoint" />
          </mxGeometry>
        </mxCell>
        <mxCell id="0NbwlL-7INHjP1GCCuyA-207" value="AppBar" style="text;html=1;strokeColor=none;fillColor=none;align=center;verticalAlign=middle;whiteSpace=wrap;rounded=0;fontFamily=Helvetica;fontSize=13;" vertex="1" parent="1">
          <mxGeometry x="120" y="117.5" width="70" height="30" as="geometry" />
        </mxCell>
        <mxCell id="0NbwlL-7INHjP1GCCuyA-208" value="" style="rounded=0;whiteSpace=wrap;html=1;fontFamily=Helvetica;fontSize=30;align=center;" vertex="1" parent="1">
          <mxGeometry x="278.57" y="960" width="291.43" height="300" as="geometry" />
        </mxCell>
        <mxCell id="0NbwlL-7INHjP1GCCuyA-209" value="" style="html=1;verticalLabelPosition=bottom;align=center;labelBackgroundColor=#ffffff;verticalAlign=top;strokeWidth=2;strokeColor=#0080F0;shadow=0;dashed=0;shape=mxgraph.ios7.icons.location_2;fontFamily=Helvetica;fontSize=30;" vertex="1" parent="1">
          <mxGeometry x="418" y="1270" width="20" height="20" as="geometry" />
        </mxCell>
        <mxCell id="0NbwlL-7INHjP1GCCuyA-210" value="" style="shape=image;html=1;verticalAlign=top;verticalLabelPosition=bottom;labelBackgroundColor=#ffffff;imageAspect=0;aspect=fixed;image=https://cdn4.iconfinder.com/data/icons/evil-icons-user-interface/64/menu-128.png;fontFamily=Helvetica;fontSize=30;align=center;" vertex="1" parent="1">
          <mxGeometry x="542" y="1266" width="28" height="28" as="geometry" />
        </mxCell>
        <mxCell id="0NbwlL-7INHjP1GCCuyA-211" value="" style="endArrow=none;html=1;fontFamily=Helvetica;fontSize=30;" edge="1" parent="1">
          <mxGeometry width="50" height="50" relative="1" as="geometry">
            <mxPoint x="344.28" y="1020" as="sourcePoint" />
            <mxPoint x="504.28" y="1020" as="targetPoint" />
            <Array as="points">
              <mxPoint x="304.28" y="1020" />
              <mxPoint x="344.28" y="1020" />
              <mxPoint x="504.28" y="1020" />
              <mxPoint x="544.28" y="1020" />
            </Array>
          </mxGeometry>
        </mxCell>
        <mxCell id="0NbwlL-7INHjP1GCCuyA-212" value="" style="endArrow=none;html=1;fontFamily=Helvetica;fontSize=30;" edge="1" parent="1">
          <mxGeometry width="50" height="50" relative="1" as="geometry">
            <mxPoint x="344.28999999999996" y="1090" as="sourcePoint" />
            <mxPoint x="504.28999999999996" y="1090" as="targetPoint" />
            <Array as="points">
              <mxPoint x="304.28999999999996" y="1090" />
              <mxPoint x="344.28999999999996" y="1090" />
              <mxPoint x="504.28999999999996" y="1090" />
              <mxPoint x="544.29" y="1090" />
            </Array>
          </mxGeometry>
        </mxCell>
        <mxCell id="0NbwlL-7INHjP1GCCuyA-213" value="" style="endArrow=none;html=1;fontFamily=Helvetica;fontSize=30;" edge="1" parent="1">
          <mxGeometry width="50" height="50" relative="1" as="geometry">
            <mxPoint x="342" y="1150" as="sourcePoint" />
            <mxPoint x="502" y="1150" as="targetPoint" />
            <Array as="points">
              <mxPoint x="302" y="1150" />
              <mxPoint x="342" y="1150" />
              <mxPoint x="502" y="1150" />
              <mxPoint x="542" y="1150" />
            </Array>
          </mxGeometry>
        </mxCell>
        <mxCell id="0NbwlL-7INHjP1GCCuyA-214" value="" style="endArrow=none;html=1;fontFamily=Helvetica;fontSize=30;" edge="1" parent="1">
          <mxGeometry width="50" height="50" relative="1" as="geometry">
            <mxPoint x="342" y="1210" as="sourcePoint" />
            <mxPoint x="502" y="1210" as="targetPoint" />
            <Array as="points">
              <mxPoint x="302" y="1210" />
              <mxPoint x="342" y="1210" />
              <mxPoint x="502" y="1210" />
              <mxPoint x="542" y="1210" />
            </Array>
          </mxGeometry>
        </mxCell>
        <mxCell id="0NbwlL-7INHjP1GCCuyA-220" value="info" style="text;html=1;strokeColor=none;fillColor=none;align=center;verticalAlign=middle;whiteSpace=wrap;rounded=0;fontFamily=Helvetica;fontSize=13;" vertex="1" parent="1">
          <mxGeometry x="310" y="1190" width="40" height="20" as="geometry" />
        </mxCell>
        <mxCell id="0NbwlL-7INHjP1GCCuyA-221" value="info" style="text;html=1;strokeColor=none;fillColor=none;align=center;verticalAlign=middle;whiteSpace=wrap;rounded=0;fontFamily=Helvetica;fontSize=13;" vertex="1" parent="1">
          <mxGeometry x="492.93" y="1190" width="40" height="20" as="geometry" />
        </mxCell>
        <mxCell id="0NbwlL-7INHjP1GCCuyA-222" value="info" style="text;html=1;strokeColor=none;fillColor=none;align=center;verticalAlign=middle;whiteSpace=wrap;rounded=0;fontFamily=Helvetica;fontSize=13;" vertex="1" parent="1">
          <mxGeometry x="496" y="1130" width="40" height="20" as="geometry" />
        </mxCell>
        <mxCell id="0NbwlL-7INHjP1GCCuyA-223" value="info" style="text;html=1;strokeColor=none;fillColor=none;align=center;verticalAlign=middle;whiteSpace=wrap;rounded=0;fontFamily=Helvetica;fontSize=13;" vertex="1" parent="1">
          <mxGeometry x="310" y="1130" width="40" height="20" as="geometry" />
        </mxCell>
        <mxCell id="0NbwlL-7INHjP1GCCuyA-224" value="info" style="text;html=1;strokeColor=none;fillColor=none;align=center;verticalAlign=middle;whiteSpace=wrap;rounded=0;fontFamily=Helvetica;fontSize=13;" vertex="1" parent="1">
          <mxGeometry x="496" y="1070" width="40" height="20" as="geometry" />
        </mxCell>
        <mxCell id="0NbwlL-7INHjP1GCCuyA-225" value="info" style="text;html=1;strokeColor=none;fillColor=none;align=center;verticalAlign=middle;whiteSpace=wrap;rounded=0;fontFamily=Helvetica;fontSize=13;" vertex="1" parent="1">
          <mxGeometry x="310" y="1070" width="40" height="20" as="geometry" />
        </mxCell>
        <mxCell id="0NbwlL-7INHjP1GCCuyA-226" value="info" style="text;html=1;strokeColor=none;fillColor=none;align=center;verticalAlign=middle;whiteSpace=wrap;rounded=0;fontFamily=Helvetica;fontSize=13;" vertex="1" parent="1">
          <mxGeometry x="496" y="1000" width="40" height="20" as="geometry" />
        </mxCell>
        <mxCell id="0NbwlL-7INHjP1GCCuyA-227" value="info" style="text;html=1;strokeColor=none;fillColor=none;align=center;verticalAlign=middle;whiteSpace=wrap;rounded=0;fontFamily=Helvetica;fontSize=13;" vertex="1" parent="1">
          <mxGeometry x="310" y="1000" width="40" height="20" as="geometry" />
        </mxCell>
      </root>
    </mxGraphModel>
  </diagram>
</mxfile>
